<?xml version="1.0" encoding="utf-8"?>
<!-- Generator: Adobe Illustrator 25.0.1, SVG Export Plug-In . SVG Version: 6.00 Build 0)  -->
<svg version="1.1" id="Layer_1" xmlns="http://www.w3.org/2000/svg" xmlns:xlink="http://www.w3.org/1999/xlink" x="0px" y="0px"
	 viewBox="0 0 120 55" style="enable-background:new 0 0 120 55;" xml:space="preserve">
<style type="text/css">
	.st0{fill-rule:evenodd;clip-rule:evenodd;fill:#E31837;}
	.st1{fill-rule:evenodd;clip-rule:evenodd;fill:#FFFFFF;}
</style>
<desc>Created with Sketch.</desc>
<g id="New_Tiles">
	<g id="Artboard" transform="translate(-341.000000, -301.000000)">
		<g id="PlayButton" transform="translate(341.000000, 301.000000)">
			<circle id="Oval" class="st0" cx="27.5" cy="27.5" r="27.5"/>
			<polygon id="Triangle" class="st1" points="40.7,27.5 20.9,37.4 20.9,17.6 			"/>
		</g>
	</g>
</g>
<g>
	<path d="M70.4,23.6c-0.2,0.9-0.4,1.8-0.6,2.7c-0.1,0.3-0.6,2.8-1.7,7.4h-1.9l-3-12.3h1.6c0.6,2.4,1.1,4.9,1.7,7.3
		c0.2,1,0.4,2.1,0.7,3.2h0.1l0.6-3c0.6-2.7,1.1-4.9,1.7-7.5h1.6l2,7.4c0.1,0.3,0.6,2.4,0.8,3h0.1c0.2-1.1,0.5-2.2,0.7-3.3
		c0.5-2.4,1.1-4.8,1.6-7.2H78c-1,4.4-2.1,8.6-3,12.3h-1.8c-0.6-2.5-1.3-4.8-2-7.4c-0.2-0.9-0.5-1.8-0.7-2.7L70.4,23.6z"/>
	<path d="M87.1,33.7c-0.3-1.1-0.7-2.1-1-3.2h-4.9c-0.3,1.1-0.7,2.2-1,3.2h-1.6c1.5-4.4,2.9-8.6,4.1-12.3h1.9l4,12.3H87.1z
		 M84.1,23.8l-0.4-1.2h-0.1l-0.4,1.2c-0.5,1.8-1,3.3-1.7,5.5h4.1C85.2,27.5,84.7,25.6,84.1,23.8z"/>
	<path d="M92.5,33.7V22.5h-4v-1.2H98v1.2h-3.9l0,11.1H92.5z"/>
	<path d="M107.5,22l-0.6,1.1c-0.8-0.5-1.6-0.8-2.7-0.8c-2.5,0-3.8,2-3.8,5.3c0,2.6,0.6,5,3.8,5c0.6,0,1.8-0.1,3-0.8l0.5,1.1
		c-0.9,0.6-2.5,0.9-3.6,0.9c-3.8,0-5.2-2.5-5.2-6.2c0-2.6,1.2-6.4,5.4-6.4C105.6,21.1,106.8,21.5,107.5,22z"/>
	<path d="M117.1,33.7v-6h-5.8c0,1.3,0,4.6,0,6h-1.6V21.3h1.6c0,1.2,0,4.1,0,5.2h5.8v-5.2h1.6v12.3H117.1z"/>
</g>
</svg>
